<?xml version="1.0" encoding="utf-8"?>
<!-- Generator: Adobe Illustrator 26.5.0, SVG Export Plug-In . SVG Version: 6.00 Build 0)  -->
<svg version="1.1" id="Layer_1" xmlns="http://www.w3.org/2000/svg" xmlns:xlink="http://www.w3.org/1999/xlink" x="0px" y="0px"
	 viewBox="0 0 70 70" style="enable-background:new 0 0 70 70;" xml:space="preserve">
<style type="text/css">
	.st0{fill:#FFFFFF;}
</style>
<g id="Mask_Group_21" transform="translate(-780 -269)">
	<g id="Layer_2_00000048473651602449856900000008447107574267891642_" transform="translate(780 269.001)">
		<g id="Layer_1_00000015353528806626544320000014343334256602316677_">
			<path id="Path_326" class="st0" d="M0,20c0.3-1,0.6-2,1-3c2.2-4.6,7.8-6.5,12.4-4.3c3.4,1.6,5.4,5.2,5.2,8.9
				c-0.1,2.5-1.3,4.9-3.2,6.5c-0.1,0.1-0.2,0.2-0.4,0.3c0.3,0.2,0.6,0.3,0.8,0.5c1.8,1.1,2.9,3.1,2.8,5.3v4.3c0.3,0,0.6,0,0.8,0h8.1
				c1.2,0,1.6,0.4,1.6,1.6c0,1.7,0,3.5,0,5.2c0,0.1,0,0.1,0.1,0.2c0.8,0,1.7,0,2.6,0c0.2,0,0.4-0.3,0.5-0.5c2-2.9,3.9-5.9,5.9-8.9
				c0.1-0.2,0.3-0.4,0.4-0.6l1.9,1.3l-5.8,8.7h19.9v-8.1H54c-2.7,0-5.4,0-8.1,0c-0.6,0-1.1-0.2-1.5-0.6c-3.3-3.3-6.6-6.6-9.9-10
				c-0.8-0.8-0.8-1.4,0-2.2c1.4-1.4,2.7-2.7,4.1-4.1c0.8-0.8,1.4-0.8,2.2,0c2.4,2.4,4.7,4.7,7.1,7.1c0.3,0.3,0.7,0.5,1.1,0.4
				c1.8,0,3.6,0,5.4,0c-0.5-0.7-1.1-1.3-1.5-1.9c-2.1-3.1-2-7.2,0.1-10.4c2.9-4.2,8.7-5.3,13-2.4c2.1,1.4,3.5,3.6,3.9,6.1
				c0,0.2,0.1,0.3,0.1,0.5v2.2c-0.4,1.3-0.9,2.5-1.5,3.8c-0.6,0.9-1.3,1.8-2,2.5c0.5,0.3,1,0.6,1.5,1c1,0.9,1.8,2.2,2,3.5v17.9
				c0,0.1-0.1,0.1-0.1,0.2c-0.4,2.7-2.6,4.7-5.3,4.9c-0.4,0-0.5,0.2-0.5,0.6c0,2.2,0,4.4,0,6.6c0,2.3,0,4.6,0,6.9h-2.3
				c0-4.6,0-9.1,0-13.7c0-0.1,0-0.2-0.1-0.2h-8.1v0.8c0,3.8,0,7.6,0,11.3c0.1,0.7-0.2,1.4-0.8,1.8H44c-0.6-0.3-1-1-0.9-1.6
				c0-5,0-9.9,0-14.9c0-1.9-0.2-3.9,1.2-5.6h-8.1v19.8h4.7V70H29.1v-2.3h4.7V47.9h-8.1c0.7,1.1,1.1,2.4,1.1,3.7c0,5.6,0,11.2,0,16.8
				c0.1,0.6-0.3,1.3-0.9,1.6h-8.9c-0.6-0.4-0.9-1.1-0.8-1.8c0-3.8,0-7.6,0-11.4v-0.8H8.2c0,0.1,0,0.2-0.1,0.2c0,4.6,0,9.1,0,13.7
				H5.9c0-0.3,0-0.5,0-0.8c0-4.2,0-8.3,0-12.5c0-0.5-0.1-0.8-0.7-0.8c-1-0.1-2-0.5-2.8-1.1c-1.2-1-2.1-2.4-2.3-4V32.9
				c0.3-1.4,1-2.6,2.1-3.6c0.5-0.4,1-0.7,1.3-0.9c-0.9-1-1.7-2.1-2.4-3.3c-0.4-1-0.8-2-1.1-3.1V20z M36.7,25.7
				c0.1,0.1,0.1,0.2,0.2,0.2c2.9,2.9,5.9,5.9,8.8,8.8c0.2,0.2,0.5,0.3,0.8,0.3c3,0,6,0,9,0c1.2,0,1.6,0.4,1.6,1.6v9.6
				c0,1.2-0.4,1.6-1.6,1.6h-6.2c-1.9-0.2-3.7,1.2-3.9,3.1c0,0.3,0,0.5,0,0.8V67c0,0.2,0,0.4,0,0.7h5.8v-12c0-1.7,0.3-1.9,1.9-1.9
				h10.5c2.5,0,3.9-1.4,3.9-4V34.3c0-2.5-1.4-3.9-3.9-3.9c-5.1,0-10.3,0-15.4,0c-0.6,0-1.3-0.2-1.7-0.7c-2.1-2.2-4.3-4.3-6.5-6.5
				c-0.2-0.2-0.3-0.3-0.5-0.5L36.7,25.7z M24.5,67.6c0-0.2,0-0.3,0-0.4c0-5.2,0-10.5,0-15.7c0.1-1.9-1.4-3.5-3.3-3.6
				c-0.2,0-0.3,0-0.5,0H11c-1.3,0-1.7-0.4-1.7-1.7v-9.9h2.4v9.2h15.1v-4.6H18c-1.2,0-1.6-0.4-1.6-1.6c0-1.7,0-3.4,0-5.1
				c0.1-1.9-1.3-3.6-3.2-3.7c-0.2,0-0.4,0-0.5,0c-2.1,0-4.1,0.1-6.2,0c-2-0.2-3.9,1.3-4,3.4c0,0.2,0,0.4,0,0.6
				c0.1,5.1,0,10.2,0,15.2c0,2.7,1.4,4.1,4.1,4.1h10.5c1.4,0,1.8,0.3,1.8,1.8v12.2H24.5z M16.3,21.1c0-3.9-3.1-7-6.9-7.1
				c-3.9,0-7,3.1-7.1,6.9c0,3.9,3.1,7,6.9,7.1C13.1,28,16.2,24.9,16.3,21.1z M53.7,21c3.9,0,7-3.1,7-7c0-3.9-3.1-7-7-7s-7,3.1-7,7
				C46.7,17.9,49.8,21,53.7,21L53.7,21z"/>
			<path id="Path_327" class="st0" d="M47.3,0c0.6,0.2,1.1,0.5,1.6,0.9c0.9,0.7,1.3,1.8,1.3,2.9v8.7c0.2,2-1.2,3.7-3.2,3.9
				c-0.2,0-0.5,0-0.7,0c-3.7,0-7.5,0-11.2,0c-0.5,0-0.9,0.2-1.3,0.5c-2.3,2.3-4.6,4.6-6.9,6.9L26.6,24c-0.4,0.5-1.2,0.6-1.7,0.2
				c-0.3-0.3-0.5-0.7-0.4-1.1v-6.8c-0.5,0-0.9,0-1.4-0.1c-1.8-0.1-3.2-1.5-3.3-3.3c-0.1-3.2-0.1-6.4,0-9.6c0-1.5,1-2.8,2.5-3.2
				c0.1,0,0.2-0.1,0.4-0.2H47.3z M26.8,20.5c0.3-0.3,0.5-0.4,0.6-0.6c1.7-1.7,3.4-3.4,5.1-5.1c0.5-0.5,1.2-0.8,1.9-0.8
				c3.9,0,7.8,0,11.7,0c1.3,0,1.7-0.4,1.7-1.7V4.1c0-1.4-0.3-1.8-1.8-1.8H26.8c-1.1,0-2.2,0-3.3,0c-0.8,0-1.3,0.4-1.3,1.2
				c0,3.1,0,6.2,0,9.2c0,0.6,0.4,1.2,1,1.2c0.1,0,0.1,0,0.2,0c0.6,0,1.2,0,1.8,0c1.3,0,1.7,0.4,1.7,1.7
				C26.8,17.2,26.8,18.8,26.8,20.5z"/>
			<path id="Path_328" class="st0" d="M24.5,11.6V9.4h20.9v2.2H24.5z"/>
			<path id="Path_329" class="st0" d="M45.5,4.7v2.2H33.9V4.7H45.5z"/>
			<path id="Path_330" class="st0" d="M31.5,4.7v2.2h-6.9V4.7H31.5z"/>
		</g>
	</g>
</g>
</svg>
