<?xml version="1.0" encoding="utf-8"?>
<!-- Generator: Adobe Illustrator 26.5.0, SVG Export Plug-In . SVG Version: 6.00 Build 0)  -->
<svg version="1.1" id="Layer_1" xmlns="http://www.w3.org/2000/svg" xmlns:xlink="http://www.w3.org/1999/xlink" x="0px" y="0px"
	 viewBox="0 0 70 70" style="enable-background:new 0 0 70 70;" xml:space="preserve">
<style type="text/css">
	.st0{fill:#FFFFFF;}
</style>
<g id="Mask_Group_17" transform="translate(-345 -235)">
	<g id="Layer_2_00000083805171959769806190000009882891625502224519_" transform="translate(345 236.444)">
		<g id="Layer_1_00000021817638645680542580000012174114684834120381_">
			<path id="Path_14" class="st0" d="M70,50.9c-0.2,0.1-0.2,0.3-0.2,0.4c-0.8,3.4-3.9,5.8-7.4,5.6c-2.8,0-5.5,0-8.3,0
				c-0.4-0.1-0.8,0.2-0.9,0.6c-1.2,2.8-2.4,5.6-3.6,8.5c-0.4,0.9-1,1.3-1.8,1.1c-0.7-0.1-1.2-0.8-1.1-1.6c0,0,0,0,0,0
				c0.1-0.3,0.1-0.5,0.2-0.8c1.3-3.1,2.7-6.3,4-9.4c0.3-0.8,1.1-1.4,1.9-1.3c3.1,0,6.3,0,9.4,0c2.1,0.2,4-1.2,4.6-3.3
				c0.1-0.5,0.2-1,0.2-1.6c0-6,0-12.1,0-18.1c0-2.2-1.2-3.2-3.3-3.4c-1.5-0.1-3,0.6-3.8,1.8c-2,2.5-4,5-6,7.5c-0.5,0.6-1.2,1-2,1
				c-2.1,0-4.1,0-6.2,0c-1.1-0.1-2,0.6-2.2,1.7c-0.1,0.4,0,0.7,0.2,1.1c0.1,0.3,0.3,0.2,0.5,0.2c1.4,0,2.7,0,4.1,0
				c2.4,0,4.8,0,7.2,0c0.4,0,0.7-0.1,0.9-0.5c1.1-1.5,2.3-3.1,3.4-4.6c0.3-0.6,1-0.9,1.7-0.7c0.8,0.2,1.2,1,1,1.8
				c-0.1,0.2-0.1,0.4-0.3,0.5c-0.5,0.7-1,1.4-1.5,2c-0.8,1.1-2,2.2-2.4,3.4c-0.3,1.4-0.3,2.8-0.1,4.1c0.1,2.2-0.4,2.7-2.6,2.6
				c-1.4,0-2.8,0-4.2,0c-1.5-0.1-2.8,0.8-3.1,2.3c-1.5,4.5-3,9-4.5,13.6c-0.1,0.3-0.2,0.6-0.3,0.9c-0.3,0.6-1,0.9-1.6,0.7
				c-0.6-0.2-1.1-0.8-1-1.4c0-0.3,0.1-0.6,0.2-0.9c1.5-4.6,3.1-9.2,4.6-13.8c0.7-2.6,3.2-4.4,5.9-4.3c1.1,0,2.3,0,3.4,0
				c0.3,0,0.5-0.1,0.5-0.5c0-0.8,0.3-1.8-0.1-2.3c-0.4-0.5-1.5-0.1-2.2-0.1c-12.6,0-25.2,0-37.7,0c-0.6,0-0.8,0.1-0.8,0.8
				c0,0.6,0,1.1,0,1.7c0,0.4,0.1,0.5,0.5,0.5c1.3,0,2.7,0,4,0.1c2.5,0.1,4.6,1.7,5.2,4.1c1.6,4.7,3.1,9.4,4.7,14.1
				c0.3,0.6,0.2,1.3-0.3,1.8c-0.4,0.4-1,0.5-1.5,0.3c-0.5-0.2-0.9-0.7-1-1.2c-1.5-4.6-3.1-9.2-4.6-13.8c-0.3-1.5-1.7-2.5-3.2-2.4
				h-4.9c-1.3,0-1.9-0.6-1.9-1.9c0-1.5,0-2.9,0-4.4c0-0.4-0.1-0.8-0.4-1.1c-1.2-1.6-2.4-3.2-3.6-4.8c-0.6-0.6-0.5-1.5,0.1-2.1
				c0.2-0.2,0.3-0.3,0.6-0.3c0.7-0.2,1.4,0.1,1.8,0.7c1.1,1.5,2.3,3,3.4,4.5c0.2,0.3,0.6,0.5,1,0.5c3.7,0,7.4,0,11.1,0
				c0.5,0,0.7-0.1,0.6-0.6c0-0.2,0-0.4,0-0.5c0.1-0.8-0.5-1.6-1.3-1.8c-0.1,0-0.3,0-0.4,0c-2.2,0-4.3,0-6.5,0c-0.8,0-1.5-0.3-2-1
				c-2-2.5-4.1-5-6-7.6c-1.3-1.7-3-1.9-4.8-1.6c-1.4,0.3-2.4,1.7-2.2,3.2c0,3.7,0,7.5,0,11.2c0,2.4,0,4.7,0,7.1
				c-0.1,2.1,1.2,4,3.3,4.5C6.7,53.9,7.2,54,7.8,54c3.1,0,6.2,0,9.3,0c0.9-0.1,1.7,0.4,1.9,1.3c1.3,3.2,2.7,6.3,4.1,9.5
				c0.5,1.2,0,2.2-1.1,2.3c-0.7,0.1-1.2-0.3-1.6-1.2c-1.2-2.8-2.4-5.5-3.6-8.3c-0.1-0.5-0.6-0.8-1.1-0.7c-2.7,0-5.4,0-8.1,0
				C4.1,57,1,54.7,0.2,51.3c0-0.1,0-0.3-0.2-0.4V29.5c0.4-0.5,0.4-1.1,0.7-1.6c1.1-2,3.1-3.2,5.4-3.2c2.4-0.2,4.8,0.9,6.2,2.8
				c1.8,2.3,3.7,4.6,5.5,6.9c0.2,0.3,0.6,0.5,1,0.5c1.9,0,3.8,0,5.7,0c2.4-0.2,4.5,1.6,4.7,4.1c0,0.2,0,0.4,0,0.6
				c0,1.2,0,1.2,1.3,1.2c3.2,0,6.4,0,9.6,0c0.6,0,0.8-0.1,0.8-0.8c-0.2-1.6,0.4-3.2,1.7-4.2c0.6-0.5,1.4-0.8,2.2-0.9
				c0.3,0,0.5-0.1,0.5-0.5c-0.1-3,0.1-6.1-0.1-9.1c-0.3-2.6-2.4-4.6-5-5c-3.4-0.2-6.9-0.2-10.3,0c-2.6,0.3-4.7,2.4-5,5
				c-0.2,1.7,0,3.3-0.1,5c0.1,0.8-0.5,1.5-1.3,1.6c-0.2,0-0.3,0-0.5,0c-0.6-0.1-1.1-0.6-1.1-1.2c0-2.2-0.3-4.4,0.2-6.6
				c0.9-3.8,4.3-6.5,8.2-6.6c3.1-0.1,6.2-0.1,9.4,0c4.6,0.1,8.3,3.9,8.4,8.5c0.1,2.8,0,5.6,0,8.3c0,0.6,0.2,0.7,0.7,0.7
				c1-0.1,2.1,0.2,3-0.1c0.8-0.4,1.3-1.4,1.9-2.2c1.4-1.7,2.8-3.5,4.2-5.2c1.5-2,3.9-3,6.4-2.7c2.8,0.1,5.1,2,5.7,4.8
				c0,0.1,0.1,0.1,0.1,0.1L70,50.9z"/>
			<path id="Path_15" class="st0" d="M0,13.3c0.2-0.1,0.2-0.4,0.3-0.6C0.9,10,3.1,8,5.8,7.5c2.6-0.6,5.3,0.3,7,2.4
				c2,2.2,2.4,5.4,1,7.9c-1.2,2.7-4,4.3-6.9,4c-3.1-0.2-5.8-2.3-6.6-5.3c-0.1-0.2,0-0.5-0.3-0.7L0,13.3z M7.3,10.2
				c-2.4,0-4.3,2-4.3,4.4s2,4.3,4.4,4.3c2.4,0,4.3-2,4.3-4.4C11.6,12.2,9.7,10.2,7.3,10.2z"/>
			<path id="Path_16" class="st0" d="M70,15.9c-0.2,0.1-0.2,0.3-0.2,0.5c-1,3.9-5,6.3-8.9,5.3c-2.4-0.6-4.4-2.4-5.1-4.8
				c-1.2-3.8,0.9-7.9,4.7-9.2s7.9,0.9,9.2,4.7c0.1,0.2,0.1,0.4,0.2,0.7c0,0.1,0,0.3,0.2,0.3L70,15.9z M62.7,10.2
				c-2.4,0-4.3,1.9-4.4,4.3c0,2.4,1.9,4.4,4.3,4.4c2.4,0,4.4-1.9,4.4-4.3C67.1,12.2,65.2,10.2,62.7,10.2
				C62.7,10.2,62.7,10.2,62.7,10.2L62.7,10.2z"/>
			<path id="Path_17" class="st0" d="M42.3,7.3c0,4-3.3,7.3-7.3,7.3c-4,0-7.3-3.3-7.3-7.3S31,0,35,0c0,0,0,0,0,0
				C39,0,42.3,3.3,42.3,7.3L42.3,7.3z M35,11.6c2.4,0,4.4-1.9,4.4-4.4c0-2.4-1.9-4.4-4.4-4.4s-4.4,1.9-4.4,4.4c0,0,0,0,0,0
				C30.7,9.7,32.6,11.6,35,11.6z"/>
			<path id="Path_18" class="st0" d="M35,26.3c-1.5,0-1.5,0-1.5-1.5s0-1.5,1.4-1.5c1.5,0,1.5,0,1.5,1.5C36.5,26.3,36.5,26.3,35,26.3
				z"/>
			<path id="Path_19" class="st0" d="M33.5,56.8c0-3.2,0-6.3,0-9.5c0-0.6,0.2-0.7,0.7-0.7c0.6,0,1.1,0,1.7,0c0.5,0,0.6,0.1,0.6,0.6
				c0,1.6,0,3.3,0,4.9c0,4.8,0,9.5,0,14.3c0,0.6-0.2,0.8-0.7,0.7c-0.5,0-1.1,0-1.6,0c-0.5,0-0.6-0.1-0.6-0.6c0-3,0-5.9,0-8.9
				L33.5,56.8z"/>
		</g>
	</g>
</g>
</svg>
