<svg xmlns="http://www.w3.org/2000/svg" xmlns:xlink="http://www.w3.org/1999/xlink" width="70" height="70" viewBox="0 0 70 70">
  <defs>
    <clipPath id="clip-path">
      <rect id="Rectangle_44" data-name="Rectangle 44" width="70" height="70" transform="translate(405 230)"/>
    </clipPath>
  </defs>
  <g id="Mask_Group_34" data-name="Mask Group 34" transform="translate(-405 -230)" clip-path="url(#clip-path)">
    <g id="Layer_1-2" transform="translate(408.002 235.001)">
      <path id="Path_486" data-name="Path 486" d="M64.239,44.052a.986.986,0,0,0-.107.214,5.719,5.719,0,0,1-5.84,4.677q-10.193.01-20.387,0h-.758c.136.236.221.395.318.547,1.678,2.623,3.364,5.239,5.027,7.871a.909.909,0,0,0,.893.5c1.317-.03,2.635-.015,3.951-.01a1.267,1.267,0,1,1,0,2.506q-15.212.005-30.425,0a1.267,1.267,0,1,1,0-2.506c1.358-.005,2.718.01,4.077-.015a.835.835,0,0,0,.609-.279c1.832-2.82,3.642-5.656,5.537-8.615H6.323c-3.4,0-5.378-1.517-6.248-4.8-.01-.035-.05-.064-.077-.094Q0,26.8,0,9.547a1.037,1.037,0,0,0,.107-.216A5.719,5.719,0,0,1,5.95,4.659q12.983-.008,25.965,0c.4,0,.795-.012,1.191,0a1.251,1.251,0,1,1,.017,2.5c-.46.017-.92.005-1.38.005H6.154a3.279,3.279,0,0,0-3.644,3.639V42.794a3.278,3.278,0,0,0,3.64,3.642h51.93c2.362,0,3.65-1.283,3.652-3.632V18.4a3.281,3.281,0,0,1,.038-.749,1.177,1.177,0,0,1,.972-.949,1.347,1.347,0,0,1,1.5.868V44.05ZM39.819,57.831c-1.874-2.929-3.682-5.763-5.512-8.582a.843.843,0,0,0-.609-.289c-1.044-.028-2.091-.037-3.135,0a.976.976,0,0,0-.686.373c-1.755,2.7-3.483,5.41-5.216,8.12a2.705,2.705,0,0,0-.166.375H39.819Z" transform="translate(0 -0.383)"/>
      <path id="Path_487" data-name="Path 487" d="M67.585,12.552c-.636.982-1.134,1.111-2.193.569-1.164-.6-2.327-1.193-3.577-1.835,0,.684.008,1.263,0,1.842a2.719,2.719,0,0,1-2.723,2.782q-7.839.043-15.677,0a2.662,2.662,0,0,1-2.708-2.718q-.045-5.237,0-10.472A2.678,2.678,0,0,1,43.482.008q7.776-.018,15.551,0A2.735,2.735,0,0,1,61.814,2.8c.01.542,0,1.084,0,1.728l2.407-1.158c.413-.2.823-.407,1.236-.607,1.024-.494,1.537-.341,2.126.632V12.55ZM51.338,2.514c-2.488,0-4.975.013-7.463-.01-.515-.005-.689.144-.686.671q.03,4.765,0,9.532c0,.542.152.721.709.719q7.37-.028,14.738,0c.514,0,.686-.149.683-.676q-.033-4.765,0-9.532c0-.549-.149-.719-.706-.713-2.424.028-4.85.012-7.275.012Zm13.719,3.24c-1.039.5-2,.959-2.944,1.43-.348.172-.465,1.161-.137,1.342,1,.549,2.016,1.049,3.081,1.6Z" transform="translate(-3.346 0)"/>
      <path id="Path_488" data-name="Path 488" d="M29.572,27.1a7.012,7.012,0,1,1,8.766-.012c.534.353,1.092.669,1.591,1.061a9.556,9.556,0,0,1,3.854,7.421c.05,1.211.028,2.426.015,3.639-.01.964-.467,1.4-1.447,1.4q-8.406.005-16.812,0c-.826,0-1.4-.386-1.4-1.119a35.039,35.039,0,0,1,.286-5.8,9.118,9.118,0,0,1,4.738-6.318c.125-.074.251-.147.375-.224.013-.008.018-.03.027-.047ZM26.666,38.07H41.279c0-.865.052-1.7-.01-2.526a7,7,0,0,0-4.1-6.146,6.976,6.976,0,0,0-7.421.592c-2.82,1.961-3.383,4.845-3.08,8.08Zm7.29-12.01a4.462,4.462,0,1,0-4.478-4.443,4.448,4.448,0,0,0,4.478,4.443Z" transform="translate(-1.986 -1.203)"/>
    </g>
  </g>
</svg>
