<?xml version="1.0" encoding="utf-8"?>
<!-- Generator: Adobe Illustrator 26.5.0, SVG Export Plug-In . SVG Version: 6.00 Build 0)  -->
<svg version="1.1" id="Layer_1" xmlns="http://www.w3.org/2000/svg" xmlns:xlink="http://www.w3.org/1999/xlink" x="0px" y="0px"
	 viewBox="0 0 70 70" style="enable-background:new 0 0 70 70;" xml:space="preserve">
<style type="text/css">
	.st0{fill:#FFFFFF;}
</style>
<g id="Mask_Group_30" transform="translate(-1380 -269)">
	<g id="Layer_2_00000003827420602763211250000002929141556016536754_" transform="translate(1387 276)">
		<g id="Layer_1_00000000183696422979415300000006233568639838081188_">
			<path id="Path_390" class="st0" d="M42.2,0c0.5,0.3,0.8,0.9,0.8,1.5c0,12.1,0,24.1,0,36.2c0,0.4,0.1,0.8,0.4,1
				c4,4,8.1,8,12.1,12.1c0.2,0.3,0.4,0.5,0.6,0.8v0.7l-3.8,3.8h-0.7c-0.3-0.2-0.5-0.4-0.8-0.6c-2.5-2.4-4.9-4.9-7.3-7.3
				c-0.1-0.1-0.3-0.3-0.5-0.5v0.6c0,2.1,0,4.2,0,6.3c0.1,0.6-0.2,1.2-0.8,1.5H26.1l-0.2-0.2c-0.5-0.3-0.7-1-0.4-1.5
				c0.2-0.4,0.6-0.6,1-0.5c1.4,0,2.9,0,4.3,0h9.9c0-0.2,0-0.4,0-0.6c0-2.5,0-5,0-7.4c0-0.3-0.1-0.6-0.4-0.9c-2-2-4.1-4-6.1-6.1
				c-0.3-0.4-0.9-0.6-1.4-0.5c-3.6,0.5-6.9-2-7.4-5.6c-0.5-3.6,2-6.9,5.6-7.4s6.9,2,7.4,5.6c0.1,0.8,0.1,1.6-0.1,2.3
				c0,0.1,0,0.3,0,0.4c0.7,0.7,1.5,1.4,2.3,2.2V2.2H2.2v51.7h14.1c0.5-0.1,1.1,0.3,1.2,0.8c0.1,0.5-0.1,1-0.6,1.3
				c0,0-0.1,0.1-0.1,0.1H0V0H42.2z M36.2,33.1c0.6-2.3-0.8-4.7-3.1-5.3s-4.7,0.8-5.3,3.1c-0.3,1.3-0.1,2.7,0.7,3.7
				c1,1.5,2.9,2.1,4.6,1.5c-0.3-0.8-0.5-1.6-0.8-2.4c-0.2-0.4-0.1-0.9,0.2-1.3c0.3-0.3,0.8-0.4,1.3-0.2
				C34.6,32.6,35.4,32.8,36.2,33.1z M35,35c0.2,0.5,0.3,0.8,0.4,1.2c0.2,0.8,0.6,1.4,1.2,2c3.4,3.4,6.8,6.8,10.2,10.2
				c0.1,0.1,0.2,0.3,0.3,0.4l1.7-1.6c-0.1-0.1-0.3-0.3-0.4-0.4c-3.4-3.4-6.7-6.7-10-10.1C37.4,35.9,36.2,35.3,35,35L35,35z
				 M53.3,51.9l-3-3l-1.4,1.4l3,3L53.3,51.9z"/>
			<path id="Path_391" class="st0" d="M21.1,56.1C21,56,21,55.9,20.9,55.9c-0.4-0.3-0.6-0.8-0.4-1.2c0.2-0.6,0.8-0.9,1.4-0.7
				c0.3,0.1,0.6,0.4,0.7,0.7c0.2,0.5,0,1-0.4,1.2c-0.1,0.1-0.2,0.1-0.3,0.2L21.1,56.1z"/>
			<path id="Path_392" class="st0" d="M36,11.4c0.2-0.3,0.4-0.6,0.6-0.9c0.3-0.5,1-0.6,1.5-0.2c0.5,0.3,0.6,0.8,0.4,1.3
				c0,0,0,0.1-0.1,0.1c-0.8,0.9-0.7,1.7-0.2,2.8c1.2,3.4-0.5,7.1-3.9,8.3c-0.1,0.1-0.3,0.1-0.5,0.1c-3.5,1-7.1-1-8.1-4.5
				s1-7.1,4.5-8.1c0.3-0.1,0.5-0.1,0.8-0.2C32.7,9.9,34.5,10.3,36,11.4z M32.9,16.1c0.7-1,1.2-1.9,1.8-2.8c-1.6-1.4-4.1-1.4-5.7,0.1
				c-1.8,1.6-1.9,4.4-0.2,6.2c1.4,1.5,3.8,1.9,5.5,0.7c1.7-1.1,2.5-3.5,1.7-5.1c-0.7,1-1.3,2-2,3c-0.3,0.5-0.9,0.8-1.5,0.5
				c-0.1-0.1-0.3-0.2-0.4-0.3c-0.7-0.7-1.4-1.4-2-2c-0.5-0.4-0.6-1.1-0.2-1.5s1.1-0.6,1.5-0.2c0.1,0.1,0.1,0.1,0.2,0.2
				C32.1,15.2,32.5,15.6,32.9,16.1z"/>
			<path id="Path_393" class="st0" d="M21.5,47.3H37c0.2,0,0.4,0,0.5,0c0.6,0,1.1,0.5,1,1.1c0,0.6-0.5,1-1.1,1c-0.1,0-0.3,0-0.4,0
				H5.9c-0.2,0-0.4,0-0.5,0c-0.6-0.1-1-0.6-0.9-1.2c0.1-0.5,0.5-0.9,0.9-0.9c0.2,0,0.4,0,0.6,0L21.5,47.3z"/>
			<path id="Path_394" class="st0" d="M20.4,42.9h14.4c0.2,0,0.4,0,0.5,0c0.6,0.1,1,0.6,1,1.2c0,0.5-0.5,0.9-1,1c-0.2,0-0.4,0-0.5,0
				H5.9c-1,0-1.6-0.4-1.5-1.1c0-0.7,0.5-1.1,1.5-1.1L20.4,42.9z"/>
			<path id="Path_395" class="st0" d="M13.7,16.6H5.6c-0.6,0.1-1.1-0.3-1.2-0.9c-0.1-0.6,0.3-1.2,0.9-1.3c0,0,0,0,0,0
				c0.2,0,0.4,0,0.5,0h16.3c0.6,0,1,0.5,1,1.1c0,0.6-0.4,1.1-1,1.1c0,0,0,0,0,0c-0.9,0-1.7,0-2.6,0L13.7,16.6z"/>
			<path id="Path_396" class="st0" d="M13.8,21H5.9c-0.2,0-0.3,0-0.5,0c-0.6,0-1.1-0.6-1-1.2c0-0.5,0.5-1,1-1c0.1,0,0.3,0,0.4,0
				h16.4c0.6,0,1.1,0.5,1.1,1.1S22.7,21,22.1,21c-0.1,0-0.3,0-0.4,0H13.8z"/>
			<path id="Path_397" class="st0" d="M13.8,29.8h8.1c0.6-0.1,1.1,0.3,1.2,0.9c0.1,0.6-0.3,1.2-0.9,1.3c0,0,0,0-0.1,0
				c-0.2,0-0.4,0-0.5,0H5.5c-0.6,0-1.1-0.5-1.1-1.1c0-0.6,0.5-1.1,1.1-1.1c0,0,0,0,0,0c0.9,0,1.9,0,2.8,0L13.8,29.8z"/>
			<path id="Path_398" class="st0" d="M13.8,36.4H5.6c-0.6,0.1-1.1-0.3-1.2-0.9c-0.1-0.6,0.3-1.2,0.9-1.3c0,0,0,0,0.1,0
				c0.2,0,0.4,0,0.5,0h16.2c0.6,0,1.1,0.5,1.1,1.1c0,0.6-0.5,1.1-1.1,1.1c0,0,0,0,0,0c-0.9,0-1.8,0-2.6,0L13.8,36.4z"/>
			<path id="Path_399" class="st0" d="M6.6,8.3c0,0.6-0.5,1.1-1.1,1.1c-0.6,0-1.1-0.5-1.1-1.1c0-0.6,0.5-1.1,1.1-1.1c0,0,0,0,0,0
				C6.1,7.3,6.6,7.7,6.6,8.3z"/>
			<path id="Path_400" class="st0" d="M10.9,8.3c0,0.6-0.5,1.1-1.1,1.1c-0.6,0-1.1-0.5-1.1-1.1c0-0.6,0.5-1.1,1.1-1.1c0,0,0,0,0,0
				C10.5,7.3,10.9,7.7,10.9,8.3z"/>
			<path id="Path_401" class="st0" d="M14.2,9.4c-0.6,0-1.1-0.5-1.1-1.1s0.5-1.1,1.1-1.1c0.6,0,1.1,0.5,1.1,1.1c0,0,0,0,0,0
				C15.3,8.9,14.8,9.4,14.2,9.4z"/>
		</g>
	</g>
</g>
</svg>
