<?xml version="1.0" encoding="utf-8"?>
<!-- Generator: Adobe Illustrator 26.5.0, SVG Export Plug-In . SVG Version: 6.00 Build 0)  -->
<svg version="1.1" id="Layer_1" xmlns="http://www.w3.org/2000/svg" xmlns:xlink="http://www.w3.org/1999/xlink" x="0px" y="0px"
	 viewBox="0 0 70 70" style="enable-background:new 0 0 70 70;" xml:space="preserve">
<style type="text/css">
	.st0{fill:#FFFFFF;}
</style>
<g id="Mask_Group_31" transform="translate(-1325 -254)">
	<g id="Layer_2_00000108270383613543482280000017394405044623304322_" transform="translate(1329.539 254)">
		<g id="Layer_1_00000083768884201721377810000009678558452573885072_">
			<path id="Path_402" class="st0" d="M0,38.5V10.9C0,8.4,1.4,7,3.9,7c0.9,0,1.8,0,2.6,0C6.9,7,7,6.9,7,6.6c0-1,0-1.9,0-2.9
				C6.9,1.7,8.4,0.1,10.3,0c0.1,0,0.2,0,0.3,0h23.3c1.1,0,2.1,0.5,2.8,1.3c4.1,4.5,8.3,9,12.4,13.5c0.7,0.7,1,1.7,1,2.6
				c0,3.7,0,7.5,0,11.2c0,0.5,0.1,0.7,0.7,0.8c6.9,1.5,11.3,8.3,9.8,15.2c-1.1,4.9-4.9,8.8-9.9,9.8c-0.5,0.1-0.7,0.2-0.7,0.8
				c0.1,1.4,0,2.7,0,4.1c0,1.9-1.5,3.5-3.4,3.6c-0.1,0-0.1,0-0.2,0c-1,0-1.9,0-2.9,0c-0.4,0-0.5,0.1-0.5,0.5c0,1,0,1.9,0,2.9
				c0.1,1.9-1.4,3.5-3.3,3.6c-0.1,0-0.1,0-0.2,0c-12,0-24,0-36,0C1.6,70,0,68.5,0,66.6c0-0.1,0-0.2,0-0.3V38.5z M39.3,32.7H22.7
				c-0.2,0-0.4,0-0.7,0c-0.6,0-1.1-0.6-1.1-1.2c0-0.6,0.5-1.1,1-1.1c0.2,0,0.4,0,0.7,0h18.8c0.7,0,1.5-0.1,2.2-0.4
				c1.1-0.5,2.3-0.7,3.5-0.7c0.5,0,0.6-0.2,0.6-0.7c0-3.5,0-6.9,0-10.4c0-0.5-0.2-0.6-0.6-0.6c-3.3,0-6.5,0-9.8,0
				c-1.3,0.1-2.5-0.6-3.1-1.8c-0.2-0.4-0.5-0.6-0.9-0.5c-4.5,0-8.9,0-13.4,0c-1.7,0.1-3.3-1.2-3.6-2.9c-0.1-0.5-0.1-0.9-0.1-1.4
				c-0.2-1.9,1.2-3.7,3.1-3.9c0.3,0,0.5,0,0.8,0h13c0.5,0,0.7-0.1,0.7-0.6c0-1.1-0.1-2.3,0-3.4c0-0.6-0.2-0.6-0.7-0.6
				c-7.4,0-14.8,0-22.2,0C9.7,2.3,9.3,2.7,9.3,4v55.1c0,1.2,0.4,1.6,1.6,1.6h35.4c1,0,1.5-0.4,1.5-1.5v-3.9c0-0.4-0.1-0.5-0.5-0.5
				c-1.2,0-2.5-0.3-3.6-0.7c-0.3-0.1-0.6-0.1-0.9,0.1c-1.2,0.5-2.4,1.1-3.7,1.6c-0.8,0.4-1.8,0.2-2.5-0.5c-0.7-0.6-0.9-1.6-0.6-2.5
				c0.2-0.5,0.3-0.9,0.5-1.5H22.8c-0.2,0-0.4,0-0.7,0c-0.6-0.1-1.1-0.7-1-1.3c0.1-0.5,0.5-0.9,1-1c0.2,0,0.4,0,0.7,0h14.6
				c-1.3-2-2-4.3-2-6.6c0-0.5-0.4-0.4-0.6-0.4c-3.1,0-6.2,0-9.3,0h-3.1c-0.5,0-1-0.3-1.1-0.8c-0.2-0.4,0-0.9,0.3-1.2
				c0.3-0.3,0.7-0.4,1.2-0.3h12.3c0.3,0,0.6,0.1,0.7-0.4C36.1,36.8,37.4,34.4,39.3,32.7z M2.3,38.5V66c0,1.3,0.3,1.7,1.7,1.7h35.3
				c1,0,1.4-0.4,1.5-1.5c0-0.8,0-1.7,0-2.5c0-0.6-0.1-0.7-0.7-0.7c-9.7,0-19.4,0-29.1,0c-2.7,0-4-1.4-4-4V10.3c0-0.1,0-0.3,0-0.4
				c0-0.4-0.1-0.5-0.5-0.5c-0.8,0-1.7,0-2.5,0c-1.4,0-1.7,0.3-1.7,1.7L2.3,38.5z M38.3,53.6c1.5-0.6,2.8-1.2,4.1-1.8
				c0.6-0.3,1.2-0.3,1.8,0c1.8,0.7,3.7,0.9,5.6,0.6c5.7-1,9.6-6.4,8.6-12.1c-0.8-4.7-4.7-8.3-9.5-8.7c-4.1-0.4-8,1.6-9.9,5.2
				c-2.1,3.5-2,7.9,0.4,11.2c0.4,0.5,0.5,1.3,0.2,1.9C39.2,51,38.8,52.3,38.3,53.6L38.3,53.6z M36.2,4.2c0,3.4,0,6.6,0,9.8
				c0,0.6,0.5,1.2,1.1,1.2c0.1,0,0.1,0,0.2,0c1.1,0,2.3,0,3.4,0h5.4L36.2,4.2z M26.6,9.3h-5.9c-1.9,0-2.1,0.2-2,2.1v0.1
				c-0.1,0.6,0.4,1.2,1.1,1.3c0.1,0,0.1,0,0.2,0c4.5,0,8.9,0,13.4,0c0.4,0,0.5-0.2,0.5-0.5c0-0.8,0-1.6,0-2.3c0-0.6-0.2-0.7-0.7-0.7
				C31,9.4,28.8,9.3,26.6,9.3z"/>
			<path id="Path_403" class="st0" d="M33.2,21h11.1c0.6,0.1,1.1,0.7,1,1.3c-0.1,0.5-0.5,1-1,1c-0.2,0-0.3,0-0.5,0H22.6
				c-0.2,0-0.4,0-0.7,0c-0.6-0.1-1.1-0.7-1-1.3c0.1-0.5,0.5-0.9,1-1c0.2,0,0.4,0,0.7,0L33.2,21z"/>
			<path id="Path_404" class="st0" d="M15.1,25.7c-2.6,0.2-3.5-0.8-3.5-3.5c0-2.6,0.9-3.6,3.6-3.6c2.6,0,3.5,0.9,3.5,3.5
				C18.7,24.8,17.9,25.9,15.1,25.7z M16.3,22.2c0-1.2,0-1.2-1.2-1.2C14,21,14,21,14,22.1c0,1.2,0,1.2,1.2,1.2
				C16.3,23.3,16.3,23.3,16.3,22.2L16.3,22.2z"/>
			<path id="Path_405" class="st0" d="M15.2,28c2.6-0.2,3.7,0.9,3.5,3.4c0,0.4,0,0.9,0,1.3c0,1.2-1,2.2-2.2,2.2c-0.8,0-1.7,0-2.5,0
				c-1.2,0-2.2-1-2.2-2.3c0-0.8,0-1.6,0-2.5c0-1.2,1.1-2.2,2.3-2.2C14.4,28,14.8,28,15.2,28z M16.3,31.5c0-1.2,0-1.2-1.2-1.2
				c-1.1,0-1.1,0-1.1,1.1c0,1.2,0,1.2,1.2,1.2C16.3,32.7,16.3,32.7,16.3,31.5L16.3,31.5z"/>
			<path id="Path_406" class="st0" d="M18.7,40.9c0.2,2.6-0.8,3.5-3.5,3.5c-2.6,0-3.6-0.9-3.5-3.6c0-2.6,0.9-3.5,3.5-3.5
				C17.8,37.3,18.9,38.1,18.7,40.9z M15.1,42c1.2,0,1.2,0,1.2-1.2c0-1.1,0-1.1-1.1-1.1c-1.2,0-1.2,0-1.2,1.2C14,42,14,42,15.1,42
				L15.1,42z"/>
			<path id="Path_407" class="st0" d="M11.7,50.1c-0.2-2.6,0.9-3.5,3.5-3.5s3.6,0.9,3.6,3.6c0,2.6-0.9,3.5-3.5,3.5
				S11.4,52.8,11.7,50.1z M15.2,49C14,49,14,49,14,50.1s0,1.2,1.1,1.2c1.2,0,1.2,0,1.2-1.2S16.3,49,15.2,49L15.2,49z"/>
			<path id="Path_408" class="st0" d="M46.9,43.1c0-1.2,0.5-2.3,1.4-3c0.5-0.3,0.9-0.7,1.3-1.2c0.5-0.5,0.5-1.4,0-2
				c-0.2-0.2-0.5-0.4-0.9-0.4c-0.9-0.3-1.9,0.1-2.4,0.9C46.2,38,45.5,38.2,45,38c0,0-0.1,0-0.1,0c-0.6-0.3-0.8-0.9-0.5-1.5
				c0.3-1,1.1-1.7,2.1-2c1.4-0.5,2.8-0.4,4.1,0.2c1.6,0.7,2.4,2.6,1.7,4.2c-0.1,0.3-0.3,0.5-0.4,0.7c-0.4,0.6-1,1.1-1.5,1.6
				c-0.7,0.5-1.2,1.3-1.2,2.2c0,0.6-0.4,1.2-1.1,1.2c-0.2,0-0.5,0-0.7-0.2C46.8,44.2,47,43.5,46.9,43.1z"/>
			<path id="Path_409" class="st0" d="M49.6,47.5c0,0.8-0.7,1.5-1.5,1.5c-0.8,0-1.5-0.7-1.5-1.5c0-0.8,0.7-1.5,1.5-1.5
				C48.9,46,49.5,46.7,49.6,47.5C49.6,47.5,49.6,47.5,49.6,47.5z"/>
		</g>
	</g>
</g>
</svg>
